<svg xmlns="http://www.w3.org/2000/svg" fill="none" viewBox="0 0 126.43100000000001 119.54261954261955" style="max-height: 500px" width="126.43100000000001" height="119.54261954261955">
<path fill="#5271FF" d="M0 25C0 11.1929 11.1929 0 25 0H97C110.807 0 122 11.1929 122 25V62C122 75.8071 110.807 87 97 87H25C11.1929 87 0 75.8071 0 62V25Z"/>
<path fill="#5271FF" d="M37 83C37 91.2843 30.2843 98 22 98C13.7157 98 7 91.2843 7 83C7 74.7157 13.7157 68 22 68C30.2843 68 37 74.7157 37 83Z"/>
<circle fill="#5271FF" r="9" cy="106" cx="11"/>
<path fill="white" d="M81.4068 18.1465C78.0988 15.0984 73.5556 14.145 69.2321 15.6193C68.0153 16.0342 66.6923 15.3841 66.2776 14.1672C65.8625 12.9503 66.5128 11.6275 67.7296 11.2126C73.6497 9.19402 79.984 10.5046 84.5618 14.7226C85.5073 15.5938 85.5675 17.0665 84.6962 18.012C83.8249 18.9575 82.3523 19.0177 81.4068 18.1465ZM57.3923 17.4749C56.6701 16.3712 54.701 15.7806 52.7945 17.0042C50.895 18.2234 50.6522 20.2127 51.3617 21.2971L59.8812 34.3199C60.5852 35.3958 60.2833 36.8386 59.2075 37.5424C58.1317 38.2463 56.689 37.9447 55.985 36.8688L47.4656 23.846C47.4651 23.8454 47.466 23.8467 47.4656 23.846L44.6257 19.5051C43.9036 18.4014 41.9345 17.8108 40.028 19.0344C38.1284 20.2536 37.8857 22.2429 38.5951 23.3274L51.3745 42.8615C52.0784 43.9373 51.7768 45.3803 50.7009 46.084C49.625 46.788 48.1822 46.4864 47.4784 45.4103L41.7987 36.7285C41.0766 35.6248 39.1074 35.0342 37.2009 36.2579C35.3014 37.477 35.0586 39.4661 35.7681 40.5507L48.5475 60.0849C53.9748 68.3809 66.4247 70.5234 76.5548 64.0216C86.6777 57.5246 89.7728 45.4261 84.3582 37.1493L75.8385 24.1265C75.1163 23.0228 73.1471 22.4322 71.2409 23.6558C69.3412 24.875 69.0985 26.8643 69.8079 27.9488L75.4877 36.6306C75.8274 37.1502 75.9458 37.784 75.8161 38.3912C75.6863 38.9986 75.3195 39.5288 74.7969 39.8643C70.1564 42.8426 68.9629 48.2016 71.2405 51.6835C71.9445 52.7596 71.6429 54.2023 70.5671 54.9059C69.4913 55.6099 68.0483 55.3084 67.3446 54.2326C63.7714 48.7707 65.4801 41.7001 70.4032 37.3632L57.3923 17.4749ZM66.1203 22.3119L61.2882 14.926C58.8737 11.2349 53.8554 10.791 50.2797 13.086C49.1776 13.7933 48.2577 14.7325 47.5826 15.8019C44.9622 13.199 40.6742 13.0874 37.5132 15.1162C33.9303 17.4157 32.2717 22.1659 34.699 25.8763L38.0796 31.0436C36.8927 31.2347 35.7282 31.6708 34.6862 32.3396C31.1033 34.6392 29.4447 39.3893 31.872 43.0998L44.6513 62.6337C51.7713 73.5171 67.2701 75.513 79.0697 67.9398C90.8759 60.3622 95.3867 45.5031 88.254 34.6004L79.7346 21.5776C77.3198 17.8865 72.3018 17.4426 68.726 19.7376C67.6727 20.4135 66.786 21.3012 66.1203 22.3119ZM38.7072 63.659C39.7831 62.9553 41.2259 63.2568 41.9297 64.3327C44.7189 68.5963 48.8082 71.7183 53.7514 73.6266C54.9508 74.0895 55.5478 75.4372 55.0848 76.6367C54.6218 77.836 53.2742 78.433 52.0748 77.9701C46.3305 75.7528 41.4167 72.0528 38.0336 66.8815C37.3297 65.8056 37.6313 64.3629 38.7072 63.659Z" clip-rule="evenodd" fill-rule="evenodd"/>
<path fill="#5271FF" d="M136.892 39V19.272H128.648V13.8H151.328V19.272H143.084V39H136.892ZM155.888 39.324C154.544 39.324 153.344 39.072 152.288 38.568C151.256 38.064 150.44 37.368 149.84 36.48C149.264 35.592 148.976 34.572 148.976 33.42C148.976 31.596 149.66 30.192 151.028 29.208C152.42 28.2 154.352 27.696 156.824 27.696C158.312 27.696 159.752 27.876 161.144 28.236V27.3C161.144 26.34 160.832 25.632 160.208 25.176C159.608 24.696 158.708 24.456 157.508 24.456C156.764 24.456 155.924 24.576 154.988 24.816C154.076 25.056 152.996 25.44 151.748 25.968L149.66 21.684C151.22 20.988 152.72 20.472 154.16 20.136C155.624 19.776 157.088 19.596 158.552 19.596C161.192 19.596 163.244 20.232 164.708 21.504C166.172 22.752 166.904 24.516 166.904 26.796V39H161.144V37.848C160.376 38.376 159.56 38.76 158.696 39C157.856 39.216 156.92 39.324 155.888 39.324ZM154.52 33.312C154.52 33.912 154.784 34.38 155.312 34.716C155.84 35.052 156.572 35.22 157.508 35.22C158.204 35.22 158.852 35.148 159.452 35.004C160.076 34.86 160.64 34.632 161.144 34.32V31.872C160.592 31.728 160.028 31.62 159.452 31.548C158.876 31.476 158.288 31.44 157.688 31.44C156.68 31.44 155.9 31.608 155.348 31.944C154.796 32.256 154.52 32.712 154.52 33.312ZM170.37 39V13.8L176.202 12.9V39H170.37ZM179.792 39V13.8L185.624 12.9V27.732L193.22 19.956H199.736L191.276 28.56L200.312 39H192.932L185.624 30.468V39H179.792ZM199.399 31.116V26.256H213.331V31.116H199.399ZM215.405 39V35.04L226.061 24.492C226.469 24.108 226.793 23.736 227.033 23.376C227.273 22.992 227.453 22.608 227.573 22.224C227.693 21.84 227.753 21.456 227.753 21.072C227.753 20.256 227.393 19.584 226.673 19.056C225.977 18.504 225.101 18.228 224.045 18.228C222.917 18.228 221.861 18.468 220.877 18.948C219.893 19.404 218.825 20.196 217.673 21.324L214.577 17.544C216.017 16.176 217.541 15.144 219.149 14.448C220.781 13.752 222.473 13.404 224.225 13.404C226.025 13.404 227.585 13.716 228.905 14.34C230.249 14.94 231.293 15.792 232.037 16.896C232.781 17.976 233.153 19.248 233.153 20.712C233.153 21.504 233.033 22.272 232.793 23.016C232.577 23.736 232.229 24.444 231.749 25.14C231.269 25.836 230.645 26.556 229.877 27.3L222.605 34.32L233.513 34.284V39H215.405ZM130.088 79V53.8H136.28V63.484H146.648V53.8H152.84V79H146.648V69.136H136.28V79H130.088ZM162.462 79.324C161.118 79.324 159.918 79.072 158.862 78.568C157.83 78.064 157.014 77.368 156.414 76.48C155.838 75.592 155.55 74.572 155.55 73.42C155.55 71.596 156.234 70.192 157.602 69.208C158.994 68.2 160.926 67.696 163.398 67.696C164.886 67.696 166.326 67.876 167.718 68.236V67.3C167.718 66.34 167.406 65.632 166.782 65.176C166.182 64.696 165.282 64.456 164.082 64.456C163.338 64.456 162.498 64.576 161.562 64.816C160.65 65.056 159.57 65.44 158.322 65.968L156.234 61.684C157.794 60.988 159.294 60.472 160.734 60.136C162.198 59.776 163.662 59.596 165.126 59.596C167.766 59.596 169.818 60.232 171.282 61.504C172.746 62.752 173.478 64.516 173.478 66.796V79H167.718V77.848C166.95 78.376 166.134 78.76 165.27 79C164.43 79.216 163.494 79.324 162.462 79.324ZM161.094 73.312C161.094 73.912 161.358 74.38 161.886 74.716C162.414 75.052 163.146 75.22 164.082 75.22C164.778 75.22 165.426 75.148 166.026 75.004C166.65 74.86 167.214 74.632 167.718 74.32V71.872C167.166 71.728 166.602 71.62 166.026 71.548C165.45 71.476 164.862 71.44 164.262 71.44C163.254 71.44 162.474 71.608 161.922 71.944C161.37 72.256 161.094 72.712 161.094 73.312ZM176.945 79V59.956H182.777V61.252C184.217 60.148 185.921 59.596 187.889 59.596C189.377 59.596 190.685 59.92 191.813 60.568C192.965 61.216 193.865 62.116 194.513 63.268C195.161 64.42 195.485 65.752 195.485 67.264V79H189.653V68.056C189.653 67 189.341 66.16 188.717 65.536C188.093 64.912 187.253 64.6 186.197 64.6C185.453 64.6 184.793 64.732 184.217 64.996C183.665 65.26 183.185 65.632 182.777 66.112V79H176.945ZM207.808 79.252C206.008 79.252 204.364 78.82 202.876 77.956C201.412 77.068 200.248 75.892 199.384 74.428C198.52 72.94 198.088 71.284 198.088 69.46C198.088 67.636 198.52 65.992 199.384 64.528C200.272 63.04 201.46 61.864 202.948 61C204.46 60.136 206.14 59.704 207.988 59.704C208.876 59.704 209.728 59.812 210.544 60.028C211.36 60.244 212.128 60.556 212.848 60.964V53.8L218.68 52.9V79H212.92V77.596C211.408 78.7 209.704 79.252 207.808 79.252ZM208.816 74.284C209.632 74.284 210.376 74.164 211.048 73.924C211.72 73.66 212.32 73.276 212.848 72.772V66.112C212.344 65.632 211.744 65.272 211.048 65.032C210.352 64.768 209.608 64.636 208.816 64.636C207.88 64.636 207.028 64.852 206.26 65.284C205.516 65.692 204.916 66.268 204.46 67.012C204.028 67.732 203.812 68.548 203.812 69.46C203.812 70.372 204.028 71.2 204.46 71.944C204.916 72.664 205.516 73.24 206.26 73.672C207.028 74.08 207.88 74.284 208.816 74.284ZM229.82 79.36C228.02 79.36 226.352 79.156 224.816 78.748C223.28 78.316 221.948 77.692 220.82 76.876L223.592 72.952C224.792 73.672 225.884 74.2 226.868 74.536C227.852 74.848 228.824 75.004 229.784 75.004C230.744 75.004 231.5 74.872 232.052 74.608C232.628 74.32 232.916 73.948 232.916 73.492C232.916 73.132 232.76 72.844 232.448 72.628C232.136 72.388 231.644 72.22 230.972 72.124L227.192 71.548C225.296 71.26 223.844 70.636 222.836 69.676C221.852 68.692 221.36 67.42 221.36 65.86C221.36 64.564 221.684 63.46 222.332 62.548C223.004 61.612 223.952 60.904 225.176 60.424C226.4 59.92 227.864 59.668 229.568 59.668C230.96 59.668 232.34 59.86 233.708 60.244C235.076 60.628 236.348 61.204 237.524 61.972L234.752 65.716C233.72 65.116 232.736 64.684 231.8 64.42C230.864 64.132 229.928 63.988 228.992 63.988C228.248 63.988 227.648 64.12 227.192 64.384C226.736 64.624 226.508 64.948 226.508 65.356C226.508 65.74 226.676 66.052 227.012 66.292C227.348 66.508 227.924 66.676 228.74 66.796L232.52 67.372C234.392 67.636 235.832 68.26 236.84 69.244C237.872 70.204 238.388 71.428 238.388 72.916C238.388 74.164 238.016 75.268 237.272 76.228C236.528 77.188 235.508 77.956 234.212 78.532C232.94 79.084 231.476 79.36 229.82 79.36Z"/>
</svg>